<?xml version="1.0" encoding="UTF-8" standalone="no"?>
<!-- Based on CC0 licensed work: https://openclipart.org/detail/188441/sid-chip -->
<svg
   xmlns:dc="http://purl.org/dc/elements/1.1/"
   xmlns:cc="http://creativecommons.org/ns#"
   xmlns:rdf="http://www.w3.org/1999/02/22-rdf-syntax-ns#"
   xmlns:svg="http://www.w3.org/2000/svg"
   xmlns="http://www.w3.org/2000/svg"
   xmlns:xlink="http://www.w3.org/1999/xlink"
   height="337.61597"
   width="408.79178"
   version="1.1"
   viewBox="0 0 408.79178 337.61597"
   id="svg4197">
  <defs
     id="defs4199">
    <filter
       style="color-interpolation-filters:sRGB"
       height="1"
       x="0"
       y="0"
       width="1"
       id="filter4098-3">
      <feTurbulence
         type="fractalNoise"
         numOctaves="3"
         result="result0"
         seed="0"
         baseFrequency="1"
         id="feTurbulence4100-2" />
      <feColorMatrix
         result="result4"
         values="0"
         type="saturate"
         id="feColorMatrix4102-2" />
      <feComposite
         operator="arithmetic"
         in="SourceGraphic"
         result="result2"
         k1="1.25"
         k2="0.5"
         k3="0.5"
         in2="result4"
         k4="0"
         id="feComposite4104-1" />
      <feBlend
         result="result5"
         in2="SourceGraphic"
         in="result2"
         mode="normal"
         id="feBlend4106-6" />
      <feComposite
         result="result3"
         in2="SourceGraphic"
         in="result5"
         operator="in"
         id="feComposite4108-8" />
    </filter>
    <linearGradient
       id="linearGradient4345">
      <stop
         offset="0"
         stop-color="#737373"
         id="stop4347" />
      <stop
         offset=".04085"
         stop-color="#e9e9e9"
         id="stop4349" />
      <stop
         offset=".091936"
         stop-color="#a9a9a9"
         id="stop4351" />
      <stop
         offset=".143"
         stop-color="#4e4e4e"
         id="stop4353" />
      <stop
         offset=".23072"
         stop-color="#909090"
         id="stop4355" />
      <stop
         offset=".35714"
         stop-color="#9c9c9c"
         id="stop4357" />
      <stop
         offset=".42857"
         stop-color="#939393"
         id="stop4359" />
      <stop
         offset=".5"
         stop-color="#969696"
         id="stop4361" />
      <stop
         offset=".57143"
         stop-color="#959595"
         id="stop4363" />
      <stop
         offset=".64286"
         stop-color="#979797"
         id="stop4365" />
      <stop
         offset=".71429"
         stop-color="#9d9d9d"
         id="stop4367" />
      <stop
         offset=".78571"
         stop-color="#9c9c9c"
         id="stop4369" />
      <stop
         offset=".85714"
         stop-color="#979797"
         id="stop4371" />
      <stop
         offset=".92857"
         stop-color="#818181"
         id="stop4373" />
      <stop
         offset="1"
         stop-color="#a4a4a4"
         id="stop4375" />
    </linearGradient>
    <linearGradient
       y2="427.47"
       x2="455.67001"
       gradientTransform="matrix(0.69796,0,0,0.78208,15.985,-274.345)"
       y1="386.44"
       gradientUnits="userSpaceOnUse"
       x1="138.07001"
       id="linearGradient5709">
      <stop
         offset="0"
         id="stop4784" />
      <stop
         offset="1"
         stop-color="#515151"
         id="stop4786" />
    </linearGradient>
    <linearGradient
       x1="312.32999"
       x2="312.73999"
       y1="420.85001"
       gradientUnits="userSpaceOnUse"
       y2="460.76001"
       id="linearGradient5711">
      <stop
         offset="0"
         stop-color="#737373"
         id="stop5642" />
      <stop
         offset=".0029501"
         stop-color="#e9e9e9"
         id="stop5644" />
      <stop
         offset=".091936"
         stop-color="#a9a9a9"
         id="stop5646" />
      <stop
         offset=".143"
         stop-color="#4e4e4e"
         id="stop5648" />
      <stop
         offset=".23072"
         stop-color="#909090"
         id="stop5650" />
      <stop
         offset=".35714"
         stop-color="#9c9c9c"
         id="stop5652" />
      <stop
         offset=".42857"
         stop-color="#939393"
         id="stop5654" />
      <stop
         offset=".5"
         stop-color="#969696"
         id="stop5656" />
      <stop
         offset=".57143"
         stop-color="#959595"
         id="stop5658" />
      <stop
         offset=".64286"
         stop-color="#979797"
         id="stop5660" />
      <stop
         offset=".71429"
         stop-color="#9d9d9d"
         id="stop5662" />
      <stop
         offset=".78571"
         stop-color="#9c9c9c"
         id="stop5664" />
      <stop
         offset=".85714"
         stop-color="#979797"
         id="stop5666" />
      <stop
         offset=".92857"
         stop-color="#818181"
         id="stop5668" />
      <stop
         offset="1"
         stop-color="#a4a4a4"
         id="stop5670" />
    </linearGradient>
    <linearGradient
       y2="460.76001"
       y1="420.85001"
       x2="312.73999"
       gradientUnits="userSpaceOnUse"
       xlink:href="#linearGradient4345"
       x1="312.32999"
       id="linearGradient5713" />
    <linearGradient
       y2="460.76001"
       y1="420.85001"
       x2="312.29999"
       gradientUnits="userSpaceOnUse"
       xlink:href="#linearGradient4345"
       x1="312.32999"
       id="linearGradient5723" />
    <linearGradient
       y2="460.76001"
       y1="420.85001"
       x2="311.85001"
       gradientUnits="userSpaceOnUse"
       xlink:href="#linearGradient4345"
       x1="312.32999"
       id="linearGradient5725" />
    <linearGradient
       y2="459.76001"
       y1="421.35001"
       x2="312.73999"
       gradientUnits="userSpaceOnUse"
       xlink:href="#linearGradient4345"
       x1="312.32999"
       id="linearGradient5729" />
    <linearGradient
       y2="460.76001"
       x2="312.73999"
       y1="420.85001"
       x1="312.32999"
       gradientUnits="userSpaceOnUse"
       id="linearGradient3507"
       xlink:href="#linearGradient4345" />
    <linearGradient
       y2="460.76001"
       x2="312.73999"
       y1="420.85001"
       x1="312.32999"
       gradientUnits="userSpaceOnUse"
       id="linearGradient3509"
       xlink:href="#linearGradient4345" />
    <linearGradient
       y2="460.76001"
       x2="312.73999"
       y1="420.85001"
       x1="312.32999"
       gradientUnits="userSpaceOnUse"
       id="linearGradient3511"
       xlink:href="#linearGradient4345" />
    <linearGradient
       y2="460.76001"
       x2="312.73999"
       y1="420.85001"
       x1="312.32999"
       gradientUnits="userSpaceOnUse"
       id="linearGradient3513"
       xlink:href="#linearGradient4345" />
    <linearGradient
       y2="460.76001"
       x2="312.29999"
       y1="420.85001"
       x1="312.32999"
       gradientUnits="userSpaceOnUse"
       id="linearGradient3515"
       xlink:href="#linearGradient4345" />
    <linearGradient
       y2="460.76001"
       x2="312.29999"
       y1="420.85001"
       x1="312.32999"
       gradientUnits="userSpaceOnUse"
       id="linearGradient3517"
       xlink:href="#linearGradient4345" />
    <linearGradient
       y2="460.76001"
       x2="312.29999"
       y1="420.85001"
       x1="312.32999"
       gradientUnits="userSpaceOnUse"
       id="linearGradient3519"
       xlink:href="#linearGradient4345" />
    <linearGradient
       y2="460.76001"
       x2="312.29999"
       y1="420.85001"
       x1="312.32999"
       gradientUnits="userSpaceOnUse"
       id="linearGradient3521"
       xlink:href="#linearGradient4345" />
    <linearGradient
       y2="460.76001"
       x2="312.29999"
       y1="420.85001"
       x1="312.32999"
       gradientUnits="userSpaceOnUse"
       id="linearGradient3523"
       xlink:href="#linearGradient4345" />
    <filter
       id="filter3676"
       style="color-interpolation-filters:sRGB">
      <feFlood
         id="feFlood3666"
         result="flood"
         flood-color="rgb(185,176,176)"
         flood-opacity="0.576471" />
      <feComposite
         id="feComposite3668"
         result="composite1"
         operator="in"
         in2="SourceGraphic"
         in="flood" />
      <feGaussianBlur
         id="feGaussianBlur3670"
         result="blur"
         stdDeviation="3"
         in="composite1" />
      <feOffset
         id="feOffset3672"
         result="offset"
         dy="6"
         dx="6" />
      <feComposite
         id="feComposite3674"
         result="composite2"
         operator="over"
         in2="offset"
         in="SourceGraphic" />
    </filter>
  </defs>
  <g
     style="filter:url(#filter3676)"
     transform="rotate(-34.455233,370.00016,56.751522)"
     id="g3616">
    <path
       id="path3944-9-5-5-8"
       d="M 1.09,75.84 C 1.19824,75.27713 3.4165,58.187 6.0194,37.862 L 10.752,0.907 h 318.58 l 4.7326,36.955 c 2.6029,20.325 4.8212,37.415 4.9294,37.978 l 0.19679,1.0234 H 0.91079 L 1.10758,75.84 Z"
       style="fill:url(#linearGradient5709);fill-rule:evenodd;stroke:#515151;stroke-width:1.81149995;stroke-linecap:round;stroke-linejoin:bevel" />
    <path
       id="path3946-4-5-2-9"
       d="m 2.986,81.86 c -0.68325,-1.8139 -1.3313,-3.5539 -1.44,-3.8665 -0.15804,-0.4544 33.696,-0.56858 168.52,-0.56858 92.796,0 168.72,0.094 168.72,0.20897 0,0.11489 -0.5927,1.8035 -1.3171,3.7524 l -1.3171,3.5434 -165.96,0.11426 -165.96,0.11426 -1.2423,-3.2981 z"
       style="fill-rule:evenodd;stroke:#515151;stroke-width:1.81149995;stroke-linecap:round" />
    <path
       id="path3944-9-5-5-2-2"
       d="m 65.562,956.29 c 0.1428,-0.7197 3.0696,-22.572 6.5041,-48.56 l 6.2444,-47.251 h 420.34 l 6.2444,47.251 c 3.4344,25.988 6.3613,47.84 6.504,48.56 l 0.25965,1.3086 h -446.36 l 0.25964,-1.3086 z"
       transform="matrix(0.7545,0,0,0.76598,-47.665,-657.34)"
       style="opacity:0.6;fill:#202020;fill-rule:evenodd;filter:url(#filter4098-3)" />
    <g
       id="g4453"
       transform="matrix(0.8519,0,0,0.76015,-107.883,-238.688)"
       style="fill-rule:evenodd">
      <path
         id="rect4238"
         d="m 140.43,420.05 c -0.38992,0 -0.71875,0.37074 -0.71875,0.83829 v 5.7869 c 0,0.1315 0.0494,0.26785 0.0937,0.37858 h -0.0937 c 0,3.7275 1.9648,6.9165 4.7188,8.1395 0.0806,0.69635 0.57792,5.3048 1.2188,11.384 0.67733,6.426 1.2498,11.78 1.2812,11.925 0.0565,0.26095 0.0666,0.28407 0.0937,0.0811 0.0646,-0.48103 2.3124,-21.821 2.4688,-23.418 2.7269,-1.2396 4.6875,-4.4082 4.6875,-8.1125 h -0.0937 c 0.0444,-0.11074 0.0937,-0.24709 0.0937,-0.37858 v -5.7869 c 0,-0.46755 -0.32883,-0.83829 -0.71875,-0.83829 h -13.031 z"
         style="fill:url(#linearGradient5711)" />
      <path
         id="path4399"
         d="m 250.76,420.05 c -0.38992,0 -0.71875,0.37074 -0.71875,0.83829 v 5.7869 c 0,0.1315 0.0494,0.26785 0.0937,0.37858 h -0.0937 c 0,3.7275 1.9648,6.9165 4.7188,8.1395 0.0806,0.69635 0.57792,5.3048 1.2188,11.384 0.67733,6.426 1.2498,11.78 1.2812,11.925 0.0565,0.26095 0.0666,0.28407 0.0937,0.0811 0.0646,-0.48103 2.3124,-21.821 2.4688,-23.418 2.7269,-1.2396 4.6875,-4.4082 4.6875,-8.1125 h -0.0937 c 0.0444,-0.11074 0.0937,-0.24709 0.0937,-0.37858 v -5.7869 c 0,-0.46755 -0.32883,-0.83829 -0.71875,-0.83829 h -13.031 z"
         style="fill:url(#linearGradient3507)" />
      <path
         id="path4401"
         d="m 223.18,420.05 c -0.38992,0 -0.71875,0.37074 -0.71875,0.83829 v 5.7869 c 0,0.1315 0.0494,0.26785 0.0937,0.37858 h -0.0937 c 0,3.7275 1.9648,6.9165 4.7188,8.1395 0.0806,0.69635 0.57792,5.3048 1.2188,11.384 0.67733,6.426 1.2498,11.78 1.2812,11.925 0.0565,0.26095 0.0666,0.28407 0.0937,0.0811 0.0646,-0.48103 2.3124,-21.821 2.4688,-23.418 2.7269,-1.2396 4.6875,-4.4082 4.6875,-8.1125 h -0.0937 c 0.0444,-0.11074 0.0937,-0.24709 0.0937,-0.37858 v -5.7869 c 0,-0.46755 -0.32883,-0.83829 -0.71875,-0.83829 h -13.031 z"
         style="fill:url(#linearGradient3509)" />
      <path
         id="path4403"
         d="m 195.6,420.05 c -0.38992,0 -0.71875,0.37074 -0.71875,0.83829 v 5.7869 c 0,0.1315 0.0494,0.26785 0.0937,0.37858 h -0.0937 c 0,3.7275 1.9648,6.9165 4.7188,8.1395 0.0806,0.69635 0.57792,5.3048 1.2188,11.384 0.67733,6.426 1.2498,11.78 1.2812,11.925 0.0565,0.26095 0.0666,0.28407 0.0937,0.0811 0.0646,-0.48103 2.3124,-21.821 2.4688,-23.418 2.7269,-1.2396 4.6875,-4.4082 4.6875,-8.1125 h -0.0937 c 0.0444,-0.11074 0.0937,-0.24709 0.0937,-0.37858 v -5.7869 c 0,-0.46755 -0.32883,-0.83829 -0.71875,-0.83829 h -13.031 z"
         style="fill:url(#linearGradient3511)" />
      <path
         id="path4405"
         d="m 168.01,420.05 c -0.38992,0 -0.71875,0.37074 -0.71875,0.83829 v 5.7869 c 0,0.1315 0.0494,0.26785 0.0937,0.37858 h -0.0937 c 0,3.7275 1.9648,6.9165 4.7188,8.1395 0.0806,0.69635 0.57792,5.3048 1.2188,11.384 0.67733,6.426 1.2498,11.78 1.2812,11.925 0.0565,0.26095 0.0666,0.28407 0.0937,0.0811 0.0646,-0.48103 2.3124,-21.821 2.4688,-23.418 2.7269,-1.2396 4.6875,-4.4082 4.6875,-8.1125 h -0.0937 c 0.0444,-0.11074 0.0937,-0.24709 0.0937,-0.37858 v -5.7869 c 0,-0.46755 -0.32883,-0.83829 -0.71875,-0.83829 h -13.031 z"
         style="fill:url(#linearGradient3513)" />
      <path
         id="path4417"
         d="m 278.35,420.05 c -0.38992,0 -0.71875,0.37074 -0.71875,0.83829 v 5.7869 c 0,0.1315 0.0494,0.26785 0.0937,0.37858 h -0.0937 c 0,3.7275 1.9648,6.9165 4.7188,8.1395 0.0806,0.69635 0.57792,5.3048 1.2188,11.384 0.67733,6.426 1.2498,11.78 1.2812,11.925 0.0565,0.26095 0.0666,0.28407 0.0937,0.0811 0.0646,-0.48103 2.3124,-21.821 2.4688,-23.418 2.7269,-1.2396 4.6875,-4.4082 4.6875,-8.1125 h -0.0937 c 0.0444,-0.11074 0.0937,-0.24709 0.0937,-0.37858 v -5.7869 c 0,-0.46755 -0.32883,-0.83829 -0.71875,-0.83829 h -13.031 z"
         style="fill:url(#linearGradient5713)" />
      <path
         id="path4419"
         d="m 388.68,420.05 c -0.38992,0 -0.71875,0.37074 -0.71875,0.83829 v 5.7869 c 0,0.1315 0.0494,0.26785 0.0937,0.37858 h -0.0937 c 0,3.7275 1.9648,6.9165 4.7188,8.1395 0.0806,0.69635 0.57792,5.3048 1.2188,11.384 0.67733,6.426 1.2498,11.78 1.2812,11.925 0.0565,0.26095 0.0666,0.28407 0.0937,0.0811 0.0646,-0.48103 2.3124,-21.821 2.4688,-23.418 2.7269,-1.2396 4.6875,-4.4082 4.6875,-8.1125 h -0.0937 c 0.0444,-0.11074 0.0937,-0.24709 0.0937,-0.37858 v -5.7869 c 0,-0.46755 -0.32883,-0.83829 -0.71875,-0.83829 h -13.031 z"
         style="fill:url(#linearGradient3515)" />
      <path
         id="path4421"
         d="m 361.1,420.05 c -0.38992,0 -0.71875,0.37074 -0.71875,0.83829 v 5.7869 c 0,0.1315 0.0494,0.26785 0.0937,0.37858 h -0.0937 c 0,3.7275 1.9648,6.9165 4.7188,8.1395 0.0806,0.69635 0.57792,5.3048 1.2188,11.384 0.67733,6.426 1.2498,11.78 1.2812,11.925 0.0565,0.26095 0.0666,0.28407 0.0937,0.0811 0.0646,-0.48103 2.3124,-21.821 2.4688,-23.418 2.7269,-1.2396 4.6875,-4.4082 4.6875,-8.1125 h -0.0937 c 0.0444,-0.11074 0.0937,-0.24709 0.0937,-0.37858 v -5.7869 c 0,-0.46755 -0.32883,-0.83829 -0.71875,-0.83829 h -13.031 z"
         style="fill:url(#linearGradient5725)" />
      <path
         id="path4423"
         d="m 333.51,420.05 c -0.38992,0 -0.71875,0.37074 -0.71875,0.83829 v 5.7869 c 0,0.1315 0.0494,0.26785 0.0937,0.37858 h -0.0937 c 0,3.7275 1.9648,6.9165 4.7188,8.1395 0.0806,0.69635 0.57792,5.3048 1.2188,11.384 0.67733,6.426 1.2498,11.78 1.2812,11.925 0.0565,0.26095 0.0666,0.28407 0.0937,0.0811 0.0646,-0.48103 2.3124,-21.821 2.4688,-23.418 2.7269,-1.2396 4.6875,-4.4082 4.6875,-8.1125 h -0.0937 c 0.0444,-0.11074 0.0937,-0.24709 0.0937,-0.37858 v -5.7869 c 0,-0.46755 -0.32883,-0.83829 -0.71875,-0.83829 h -13.031 z"
         style="fill:url(#linearGradient3517)" />
      <path
         id="path4425"
         d="m 305.93,420.05 c -0.38992,0 -0.71875,0.37074 -0.71875,0.83829 v 5.7869 c 0,0.1315 0.0494,0.26785 0.0937,0.37858 h -0.0937 c 0,3.7275 1.9648,6.9165 4.7188,8.1395 0.0806,0.69635 0.57792,5.3048 1.2188,11.384 0.67733,6.426 1.2498,11.78 1.2812,11.925 0.0565,0.26095 0.0666,0.28407 0.0937,0.0811 0.0646,-0.48103 2.3124,-21.821 2.4688,-23.418 2.7269,-1.2396 4.6875,-4.4082 4.6875,-8.1125 h -0.0937 c 0.0444,-0.11074 0.0937,-0.24709 0.0937,-0.37858 v -5.7869 c 0,-0.46755 -0.32883,-0.83829 -0.71875,-0.83829 h -13.031 z"
         style="fill:url(#linearGradient5729)" />
      <path
         id="path4437"
         d="m 499.01,420.05 c -0.38992,0 -0.71875,0.37074 -0.71875,0.83829 v 5.7869 c 0,0.1315 0.0494,0.26785 0.0937,0.37858 h -0.0937 c 0,3.7275 1.9648,6.9165 4.7188,8.1395 0.0806,0.69635 0.57792,5.3048 1.2188,11.384 0.67733,6.426 1.2498,11.78 1.2812,11.925 0.0565,0.26095 0.0666,0.28407 0.0937,0.0811 0.0646,-0.48103 2.3124,-21.821 2.4688,-23.418 2.7269,-1.2396 4.6875,-4.4082 4.6875,-8.1125 h -0.0937 c 0.0444,-0.11074 0.0937,-0.24709 0.0937,-0.37858 v -5.7869 c 0,-0.46755 -0.32883,-0.83829 -0.71875,-0.83829 h -13.031 z"
         style="fill:url(#linearGradient3519)" />
      <path
         id="path4439"
         d="m 471.43,420.05 c -0.38992,0 -0.71875,0.37074 -0.71875,0.83829 v 5.7869 c 0,0.1315 0.0494,0.26785 0.0937,0.37858 h -0.0937 c 0,3.7275 1.9648,6.9165 4.7188,8.1395 0.0806,0.69635 0.57792,5.3048 1.2188,11.384 0.67733,6.426 1.2498,11.78 1.2812,11.925 0.0565,0.26095 0.0666,0.28407 0.0937,0.0811 0.0646,-0.48103 2.3124,-21.821 2.4688,-23.418 2.7269,-1.2396 4.6875,-4.4082 4.6875,-8.1125 h -0.0937 c 0.0444,-0.11074 0.0937,-0.24709 0.0937,-0.37858 v -5.7869 c 0,-0.46755 -0.32883,-0.83829 -0.71875,-0.83829 h -13.031 z"
         style="fill:url(#linearGradient3521)" />
      <path
         id="path4441"
         d="m 443.85,420.05 c -0.38992,0 -0.71875,0.37074 -0.71875,0.83829 v 5.7869 c 0,0.1315 0.0494,0.26785 0.0937,0.37858 h -0.0937 c 0,3.7275 1.9648,6.9165 4.7188,8.1395 0.0806,0.69635 0.57792,5.3048 1.2188,11.384 0.67733,6.426 1.2498,11.78 1.2812,11.925 0.0565,0.26095 0.0666,0.28407 0.0937,0.0811 0.0646,-0.48103 2.3124,-21.821 2.4688,-23.418 2.7269,-1.2396 4.6875,-4.4082 4.6875,-8.1125 h -0.0937 c 0.0444,-0.11074 0.0937,-0.24709 0.0937,-0.37858 v -5.7869 c 0,-0.46755 -0.32883,-0.83829 -0.71875,-0.83829 h -13.031 z"
         style="fill:url(#linearGradient3523)" />
      <path
         id="path4443"
         d="m 416.26,420.05 c -0.38992,0 -0.71875,0.37074 -0.71875,0.83829 v 5.7869 c 0,0.1315 0.0494,0.26785 0.0937,0.37858 h -0.0937 c 0,3.7275 1.9648,6.9165 4.7188,8.1395 0.0806,0.69635 0.57792,5.3048 1.2188,11.384 0.67733,6.426 1.2498,11.78 1.2812,11.925 0.0565,0.26095 0.0666,0.28407 0.0937,0.0811 0.0646,-0.48103 2.3124,-21.821 2.4688,-23.418 2.7269,-1.2396 4.6875,-4.4082 4.6875,-8.1125 h -0.0937 c 0.0444,-0.11074 0.0937,-0.24709 0.0937,-0.37858 v -5.7869 c 0,-0.46755 -0.32883,-0.83829 -0.71875,-0.83829 h -13.031 z"
         style="fill:url(#linearGradient5723)" />
    </g>
    <path
       id="path5416"
       d="m 63.567,35.255 a 9.3205,9.510702 0 1 1 -18.641,0 9.3205,9.510702 0 1 1 18.641,0 z"
       style="opacity:0.6;fill-rule:evenodd;stroke:#515151;stroke-linecap:round" />
    <path
       id="path5418"
       d="m 295.248,35.255 a 9.3205,9.510702 0 1 1 -18.641,0 9.3205,9.510702 0 1 1 18.641,0 z"
       style="opacity:0.6;fill:#202020;fill-rule:evenodd;stroke:#515151;stroke-linecap:round" />
  </g>
  <metadata
     id="metadata86">
    <rdf:RDF>
      <cc:License
         rdf:about="http://creativecommons.org/publicdomain/zero/1.0/">
        <cc:permits
           rdf:resource="http://creativecommons.org/ns#Reproduction" />
        <cc:permits
           rdf:resource="http://creativecommons.org/ns#Distribution" />
        <cc:permits
           rdf:resource="http://creativecommons.org/ns#DerivativeWorks" />
      </cc:License>
    </rdf:RDF>
  </metadata>
</svg>
